HIERARCHY
ROOT Hips
{
	OFFSET 0.00000 0.00000 0.00000
	CHANNELS 6 Xposition Yposition Zposition Zrotation Yrotation Xrotation 
	JOINT LHipJoint
	{
		OFFSET 0 0 0
		CHANNELS 3 Zrotation Yrotation Xrotation
		JOINT LeftUpLeg
		{
			OFFSET 1.75344 -1.53157 0.77399
			CHANNELS 3 Zrotation Yrotation Xrotation
			JOINT LeftLeg
			{
				OFFSET 2.25415 -6.19323 0.00000
				CHANNELS 3 Zrotation Yrotation Xrotation
				JOINT LeftFoot
				{
					OFFSET 2.30342 -6.32861 0.00000
					CHANNELS 3 Zrotation Yrotation Xrotation
					JOINT LeftToeBase
					{
						OFFSET 0.10958 -0.30108 1.49206
						CHANNELS 3 Zrotation Yrotation Xrotation
						End Site
						{
							OFFSET 0.00000 -0.00000 0.77783
						}
					}
				}
			}
		}
	}
	JOINT RHipJoint
	{
		OFFSET 0 0 0
		CHANNELS 3 Zrotation Yrotation Xrotation
		JOINT RightUpLeg
		{
			OFFSET -1.81912 -1.53156 0.77399
			CHANNELS 3 Zrotation Yrotation Xrotation
			JOINT RightLeg
			{
				OFFSET -2.22882 -6.12365 0.00000
				CHANNELS 3 Zrotation Yrotation Xrotation
				JOINT RightFoot
				{
					OFFSET -2.21943 -6.09785 0.00000
					CHANNELS 3 Zrotation Yrotation Xrotation
					JOINT RightToeBase
					{
						OFFSET -0.18931 -0.52012 1.59379
						CHANNELS 3 Zrotation Yrotation Xrotation
						End Site
						{
							OFFSET -0.00000 -0.00000 0.84686
						}
					}
				}
			}
		}
	}
	JOINT LowerBack
	{
		OFFSET 0 0 0
		CHANNELS 3 Zrotation Yrotation Xrotation
		JOINT Spine
		{
			OFFSET -0.00200 1.66634 -0.14248
			CHANNELS 3 Zrotation Yrotation Xrotation
			JOINT Spine1
			{
				OFFSET -0.00875 1.64542 0.09514
				CHANNELS 3 Zrotation Yrotation Xrotation
				JOINT Neck
				{
					OFFSET 0 0 0
					CHANNELS 3 Zrotation Yrotation Xrotation
					JOINT Neck1
					{
						OFFSET 0.02257 1.59605 0.00839
						CHANNELS 3 Zrotation Yrotation Xrotation
						JOINT Head
						{
							OFFSET -0.10214 1.57530 -0.23335
							CHANNELS 3 Zrotation Yrotation Xrotation
							End Site
							{
								OFFSET -0.03588 1.60717 -0.08062
							}
						}
					}
				}
				JOINT LeftShoulder
				{
					OFFSET 0 0 0
					CHANNELS 3 Zrotation Yrotation Xrotation
					JOINT LeftArm
					{
						OFFSET 2.54983 1.10186 0.40078
						CHANNELS 3 Zrotation Yrotation Xrotation
						JOINT LeftForeArm
						{
							OFFSET 4.28840 -0.00000 0.00000
							CHANNELS 3 Zrotation Yrotation Xrotation
							JOINT LeftHand
							{
								OFFSET 3.06552 -0.00000 -0.00000
								CHANNELS 3 Zrotation Yrotation Xrotation
								JOINT LeftFingerBase
								{
									OFFSET 0 0 0
									CHANNELS 3 Zrotation Yrotation Xrotation
									JOINT LeftHandIndex1
									{
										OFFSET 0.75304 -0.00000 0.00000
										CHANNELS 3 Zrotation Yrotation Xrotation
										End Site
										{
											OFFSET 0.60712 -0.00000 0.00000
										}
									}
								}
								JOINT LThumb
								{
									OFFSET 0 0 0
									CHANNELS 3 Zrotation Yrotation Xrotation
									End Site
									{
										OFFSET 0.61639 -0.00000 0.61639
									}
								}
							}
						}
					}
				}
				JOINT RightShoulder
				{
					OFFSET 0 0 0
					CHANNELS 3 Zrotation Yrotation Xrotation
					JOINT RightArm
					{
						OFFSET -2.60909 1.35448 0.21802
						CHANNELS 3 Zrotation Yrotation Xrotation
						JOINT RightForeArm
						{
							OFFSET -4.52172 -0.00000 -0.00000
							CHANNELS 3 Zrotation Yrotation Xrotation
							JOINT RightHand
							{
								OFFSET -2.89140 -0.00000 0.00000
								CHANNELS 3 Zrotation Yrotation Xrotation
								JOINT RightFingerBase
								{
									OFFSET 0 0 0
									CHANNELS 3 Zrotation Yrotation Xrotation
									JOINT RightHandIndex1
									{
										OFFSET -0.68054 -0.00000 0.00000
										CHANNELS 3 Zrotation Yrotation Xrotation
										End Site
										{
											OFFSET -0.54867 -0.00000 0.00000
										}
									}
								}
								JOINT RThumb
								{
									OFFSET 0 0 0
									CHANNELS 3 Zrotation Yrotation Xrotation
									End Site
									{
										OFFSET -0.55705 -0.00000 0.55705
									}
								}
							}
						}
					}
				}
			}
		}
	}
}
MOTION
Frames: 6
Frame Time: .0083333
8.6781 15.4452 23.35 0 0 0 0 0 0 -21 0 0 0 0 0 0 0 0 0 0 0 0 0 0 21 0 0 0 0 0 0 0 0 0 0 0 0 0 0 0 0 0 0 0 0 0 0 -16 0 0 21 0 0 11 0 0 0 -8 0 0 0 0 0 0 0 0 0 0 0 0 0 0 0 0 0 0 0 0 8 0 0 0 0 0 0 0 0 0 0 0 0 0 0 0 0 0
8.6781 15.4452 23.3500 179.7710 -5.0478 177.2790 0.0000 0.0000 0.0000 -26.0239 -18.6046 2.7746 1.4892 7.7095 21.8352 1.0388 6.3914 -22.5705 3.3250 -11.2035 -32.9693 0.0000 0.0000 0.0000 26.4740 10.6936 6.4383 -0.8621 -5.9208 16.5549 0.4494 -22.2695 -28.2025 -0.1138 -2.1749 5.9893 2.1291 2.9146 7.8560 -0.4153 4.0786 -3.8033 -2.2298 1.8432 -8.2462 9.2563 17.1375 -1.2409 -4.0075 22.8430 5.4314 -1.6985 11.4343 3.6481 -0.0000 -0.0000 0.0000 -86.4170 12.9580 33.4275 19.3716 -29.8778 -5.2147 -0.0000 -0.0000 12.6553 -0.0639 -37.2740 0.0387 -7.1250 0.0000 -0.0000 -17.9087 -5.7266 20.5932 -0.0000 -0.0000 0.0000 85.4869 -19.2438 43.0353 -18.5528 28.8592 -4.8131 0.0000 0.0000 21.0466 -9.4945 -53.3858 7.6458 7.1250 -0.0000 -0.0000 69.3006 -74.8900 -54.0628
8.6767 15.4465 23.3502 179.7280 -5.0594 177.2940 0.0000 0.0000 0.0000 -26.0956 -18.7250 2.7941 1.4971 7.7290 21.8941 1.0840 6.2830 -22.8845 3.1548 -10.9416 -32.0831 0.0000 0.0000 0.0000 26.3609 10.5153 6.3763 -0.8572 -5.9042 16.5068 0.3347 -21.7906 -28.3389 -0.1610 -2.5855 7.1267 2.1820 2.9682 7.9490 -0.4729 4.1544 -3.8412 -2.3382 1.8729 -8.3297 9.2233 17.0794 -1.2264 -4.0863 22.7710 5.3270 -1.7310 11.3962 3.6105 0.0000 0.0000 0.0000 -86.3993 13.0390 33.2065 19.3783 -29.8860 -5.2180 -0.0000 -0.0000 12.7358 -0.4510 -37.3587 0.2737 -7.1250 0.0000 -0.0000 -18.1085 -5.7749 20.8610 0.0000 0.0000 0.0000 85.5567 -19.3342 43.1236 -18.5686 28.8791 -4.8207 0.0000 0.0000 21.0713 -9.5470 -53.0297 7.6531 7.1250 -0.0000 -0.0000 68.0004 -74.8082 -52.7778
8.6780 15.4464 23.3496 179.8260 -5.1463 177.2760 0.0000 0.0000 0.0000 -25.9868 -18.8134 2.7774 1.5118 7.7651 22.0030 1.1094 6.0623 -22.9542 3.0090 -10.7096 -31.3066 0.0000 0.0000 0.0000 26.4632 10.3942 6.4160 -0.8438 -5.8591 16.3762 0.3626 -21.8573 -28.2272 -0.1479 -2.4783 6.8295 2.2850 2.9599 8.0203 -0.4451 4.1592 -3.8642 -2.3726 1.8685 -8.3911 9.1452 17.0858 -1.2284 -4.0061 22.7762 5.3123 -1.6979 11.3995 3.5834 0.0000 -0.0000 0.0000 -86.3982 13.0689 32.9165 19.3181 -29.8120 -5.1881 -0.0000 -0.0000 12.6385 -0.9366 -37.8360 0.5746 -7.1250 0.0000 -0.0000 -18.3681 -6.1893 21.3124 0.0000 -0.0000 0.0000 85.5143 -19.3069 43.5440 -18.6938 29.0365 -4.8814 0.0000 0.0000 19.7822 -11.4559 -53.3480 9.2345 7.1250 -0.0000 -0.0000 68.3592 -75.6201 -54.0023
8.6804 15.4472 23.3493 179.9080 -5.3014 177.3290 0.0000 0.0000 0.0000 -25.8482 -18.8525 2.6447 1.5237 7.7941 22.0904 1.1140 5.9114 -22.8955 3.0465 -10.7700 -31.5080 0.0000 0.0000 0.0000 26.5638 10.3387 6.4039 -0.8321 -5.8193 16.2610 0.4177 -22.0610 -28.1193 -0.1294 -2.3190 6.3880 2.3548 2.9083 7.9980 -0.4173 4.0996 -3.8665 -2.3721 1.8365 -8.3810 9.0925 17.1270 -1.3306 -3.9538 22.8225 5.3263 -1.6613 11.4214 3.5949 -0.0000 0.0000 0.0000 -86.3839 13.0222 32.7498 19.2949 -29.7835 -5.1765 -0.0000 -0.0000 12.5178 -1.1411 -38.2147 0.7060 -7.1250 0.0000 -0.0000 -18.4817 -6.5328 21.5577 -0.0000 0.0000 0.0000 85.4123 -19.1495 44.1254 -18.6441 28.9740 -4.8572 0.0000 0.0000 18.9391 -13.8288 -53.0885 11.1345 7.1250 -0.0000 -0.0000 66.4110 -76.4593 -53.1223
8.6814 15.4502 23.3481 179.9330 -5.4406 177.4860 0.0000 0.0000 0.0000 -25.7637 -18.9877 2.4393 1.5371 7.8267 22.1890 1.1214 5.7738 -22.8699 3.0115 -10.7137 -31.3202 0.0000 0.0000 0.0000 26.5609 10.3021 6.2997 -0.8164 -5.7656 16.1058 0.4527 -22.1756 -28.0282 -0.1303 -2.3269 6.4101 2.3347 2.8803 7.8683 -0.3906 4.0567 -3.8982 -2.3196 1.8174 -8.3451 9.1899 17.1391 -1.1477 -4.1959 22.8628 5.0786 -1.7721 11.4397 3.5260 0.0000 -0.0000 0.0000 -86.3951 13.0042 32.8598 19.3335 -29.8310 -5.1957 -0.0000 -0.0000 12.5200 -0.5266 -37.9816 0.3241 -7.1250 0.0000 -0.0000 -18.1653 -6.3610 21.1007 0.0000 -0.0000 0.0000 85.2848 -19.0727 44.3256 -18.6481 28.9791 -4.8592 0.0000 0.0000 19.5056 -11.3383 -53.8095 9.1923 7.1250 -0.0000 -0.0000 70.1712 -75.6942 -55.7611
